<?xml version="1.0" encoding="UTF-8"?>
<svg version="1.1" xmlns="http://www.w3.org/2000/svg" width="450" height="449">
<path d="M0 0 C1.19302734 0.36883301 1.19302734 0.36883301 2.41015625 0.74511719 C43.91540018 13.85117084 82.11049298 39.66200584 109 74 C109.80179687 74.99644531 110.60359375 75.99289063 111.4296875 77.01953125 C133.74833781 105.01937195 148.00052073 138.00260365 155 173 C155.26466064 174.22275635 155.26466064 174.22275635 155.53466797 175.47021484 C160.87217405 200.63425493 160.47206451 230.90618393 155 256 C154.70198486 257.45019531 154.70198486 257.45019531 154.39794922 258.9296875 C143.83138807 309.71250122 116.01324942 356.85144744 75 389 C74.02675781 389.79019531 73.05351562 390.58039063 72.05078125 391.39453125 C63.2002161 398.44611076 53.78548079 404.33345255 44 410 C43.35804688 410.37398926 42.71609375 410.74797852 42.0546875 411.13330078 C19.88857725 423.90829039 -4.87261714 431.72564305 -30 436 C-31.26070313 436.21527344 -32.52140625 436.43054688 -33.8203125 436.65234375 C-66.50269117 441.5726579 -100.46251671 438.78518688 -132 429 C-132.79535156 428.75411133 -133.59070313 428.50822266 -134.41015625 428.25488281 C-175.91540018 415.14882916 -214.11049298 389.33799416 -241 355 C-241.80179688 354.00355469 -242.60359375 353.00710938 -243.4296875 351.98046875 C-265.74833781 323.98062805 -280.00052073 290.99739635 -287 256 C-287.17644043 255.1848291 -287.35288086 254.3696582 -287.53466797 253.52978516 C-292.87217405 228.36574507 -292.47206451 198.09381607 -287 173 C-286.70198486 171.54980469 -286.70198486 171.54980469 -286.39794922 170.0703125 C-275.83138807 119.28749878 -248.01324942 72.14855256 -207 40 C-206.02675781 39.20980469 -205.05351562 38.41960938 -204.05078125 37.60546875 C-195.2002161 30.55388924 -185.78548079 24.66654745 -176 19 C-175.35804688 18.62601074 -174.71609375 18.25202148 -174.0546875 17.86669922 C-122.20269569 -12.01714819 -56.82987417 -17.63269865 0 0 Z " fill="#FCBE07" transform="translate(291,10)"/>
<path d="M0 0 C3.8456884 2.80297989 7.41416662 5.87505763 11 9 C12.72367778 10.42333999 14.45290144 11.83998949 16.1875 13.25 C17.53908203 14.35601562 17.53908203 14.35601562 18.91796875 15.484375 C23.30447794 19.06474498 27.70068822 22.63313128 32.09643555 26.20214844 C35.90365071 29.29412879 39.70606801 32.39171837 43.5 35.5 C44.35207031 36.19480469 45.20414062 36.88960937 46.08203125 37.60546875 C48.38142067 39.49238403 50.66746131 41.39272726 52.94921875 43.30078125 C54.36186961 44.47148638 55.77462982 45.64205957 57.1875 46.8125 C58.16783203 47.64007813 58.16783203 47.64007813 59.16796875 48.484375 C66.64569857 54.65048688 73.71406706 57.53051353 83.1875 59.375 C84.19127686 59.57996094 85.19505371 59.78492188 86.22924805 59.99609375 C92.93348137 61.32372374 99.6603325 62.43888385 106.4140625 63.4765625 C107.22939957 63.60316254 108.04473663 63.72976257 108.88478088 63.86019897 C112.95111928 64.49010527 117.01869235 65.10168891 121.0925293 65.68115234 C133.84304054 67.56747808 145.33354715 70.73488109 154 81 C159.02342144 89.14323054 161.13597865 96.06635277 161.23828125 105.57421875 C161.246353 106.2980928 161.25442474 107.02196686 161.26274109 107.76777649 C161.27652591 109.2965764 161.28727293 110.82540636 161.29516602 112.35424805 C161.30665619 113.90089081 161.32706114 115.44749485 161.35668945 116.99389648 C161.52879022 125.99409354 161.44814033 133.89525862 157 142 C156.53078125 142.89074219 156.0615625 143.78148437 155.578125 144.69921875 C146.84515416 157.7729898 134.51912586 162.60037422 120.2578125 168.01953125 C118.41706401 168.72650971 116.57631601 169.43348944 114.7355938 170.14053631 C112.17693347 171.12189855 109.61651023 172.09861555 107.05609131 173.07537842 C102.62934946 174.76512087 98.20533942 176.46199985 93.78143311 178.15914917 C91.31703351 179.1040255 88.85190919 180.0470139 86.38604736 180.98806763 C80.94582482 183.06999203 75.52255231 185.17572796 70.14355469 187.41162109 C69.25336639 187.77954269 68.3631781 188.14746429 67.4460144 188.52653503 C65.85365374 189.18952136 64.26539909 189.86253427 62.68313599 190.54927063 C52.62860288 194.73237401 42.21315597 195.31376413 31.4375 195.3359375 C29.70777954 195.3459227 29.70777954 195.3459227 27.94311523 195.35610962 C25.52296528 195.36616286 23.10278801 195.37092893 20.68261719 195.37060547 C17.00929748 195.37498891 13.33717131 195.41141744 9.6640625 195.44921875 C7.29687905 195.45508664 4.92968998 195.45905622 2.5625 195.4609375 C1.480896 195.47530853 0.39929199 195.48967957 -0.71508789 195.50448608 C-10.94808647 195.44402772 -19.87373714 192.63213554 -28.6640625 187.4609375 C-29.79730957 186.80254883 -30.93055664 186.14416016 -32.09814453 185.46582031 C-32.67453674 185.1240979 -33.25092896 184.78237549 -33.8447876 184.43029785 C-35.6665289 183.35038195 -37.49581828 182.28440213 -39.32763672 181.22167969 C-41.76647165 179.8059464 -44.20277851 178.38604533 -46.63671875 176.96191406 C-67.29278687 164.3484776 -67.29278687 164.3484776 -90.625 159.6875 C-91.93726563 159.65011719 -93.24953125 159.61273438 -94.6015625 159.57421875 C-104.76307761 160.09009121 -113.20902741 165.64688167 -121.4375 171.125 C-123.35187613 172.37911432 -125.26720254 173.63177957 -127.18359375 174.8828125 C-128.42967407 175.70869873 -128.42967407 175.70869873 -129.70092773 176.55126953 C-142.56687767 184.65858045 -162.93431219 179.03287822 -177.18554688 177.42333984 C-180.93948844 177.00671576 -184.69532088 176.61833415 -188.453125 176.23828125 C-190.82294222 175.99243368 -193.1927349 175.7463494 -195.5625 175.5 C-196.63669189 175.39389404 -197.71088379 175.28778809 -198.81762695 175.1784668 C-219.15017888 172.99980883 -219.15017888 172.99980883 -225.59765625 166.109375 C-229.1972101 160.69500431 -230.48514006 155.46823045 -230.9831543 149.05541992 C-231.05186737 148.29327179 -231.12058044 147.53112366 -231.19137573 146.74588013 C-231.41402153 144.24160692 -231.61951906 141.73626768 -231.82421875 139.23046875 C-231.97605582 137.46748418 -232.12872457 135.70457106 -232.28218079 133.94172668 C-232.60127931 130.24632805 -232.91222682 126.55036345 -233.21704102 122.85375977 C-233.60381882 118.16761157 -234.00762153 113.48313415 -234.41737652 108.79894543 C-234.73477816 105.15378694 -235.04432637 101.50799316 -235.35154152 97.86196327 C-235.49743859 96.13782047 -235.64529404 94.413842 -235.79532433 92.69005394 C-236.56127849 83.82677663 -237.13923185 74.99373989 -237.21801758 66.0949707 C-237.23589718 64.97797051 -237.23589718 64.97797051 -237.25413799 63.83840466 C-237.24810737 58.93117672 -236.66224557 55.39005258 -233.55859375 51.5390625 C-233.04425781 51.03117187 -232.52992188 50.52328125 -232 50 C-231.43410156 49.43023437 -230.86820313 48.86046875 -230.28515625 48.2734375 C-221.31963082 39.99454969 -209.83483798 40.86135995 -198.2578125 40.28125 C-197.05365692 40.21844849 -195.84950134 40.15564697 -194.6088562 40.09094238 C-190.78102844 39.89146626 -186.95303877 39.69538194 -183.125 39.5 C-179.30411268 39.30444087 -175.48327694 39.10805646 -171.66256714 38.90905762 C-169.29298302 38.78567043 -166.9232973 38.66421333 -164.55349731 38.54504395 C-158.4764676 38.22896953 -152.43121505 37.78936335 -146.37371826 37.21075439 C-143.54114649 36.95925995 -140.72178588 36.84372844 -137.87890625 36.7890625 C-136.84056641 36.76070312 -135.80222656 36.73234375 -134.73242188 36.703125 C-132.62322283 36.65114228 -130.51382015 36.60684104 -128.40429688 36.5703125 C-110.54039427 36.03871465 -94.9067497 28.57076615 -78.97311401 21.1550293 C-74.9276386 19.27275255 -70.87527284 17.40538761 -66.82421875 15.53515625 C-66.00568924 15.15678619 -65.18715973 14.77841614 -64.34382629 14.38858032 C-56.73007501 10.87018733 -49.10361945 7.38034985 -41.46380615 3.91891479 C-40.12111226 3.31001309 -38.77902168 2.69977914 -37.43756104 2.08816528 C-35.58355502 1.24301582 -33.72737546 0.40263935 -31.87109375 -0.4375 C-30.82880615 -0.91058594 -29.78651855 -1.38367188 -28.71264648 -1.87109375 C-19.27723756 -5.7977728 -8.81791273 -5.1414789 0 0 Z " fill="#000000" transform="translate(263,129)"/>
<path d="M0 0 C1.19302734 0.36883301 1.19302734 0.36883301 2.41015625 0.74511719 C43.91540018 13.85117084 82.11049298 39.66200584 109 74 C109.80179687 74.99644531 110.60359375 75.99289063 111.4296875 77.01953125 C133.74833781 105.01937195 148.00052073 138.00260365 155 173 C155.26466064 174.22275635 155.26466064 174.22275635 155.53466797 175.47021484 C160.87217405 200.63425493 160.47206451 230.90618393 155 256 C154.70198486 257.45019531 154.70198486 257.45019531 154.39794922 258.9296875 C143.83138807 309.71250122 116.01324942 356.85144744 75 389 C74.02675781 389.79019531 73.05351562 390.58039063 72.05078125 391.39453125 C63.2002161 398.44611076 53.78548079 404.33345255 44 410 C43.35804688 410.37398926 42.71609375 410.74797852 42.0546875 411.13330078 C19.88857725 423.90829039 -4.87261714 431.72564305 -30 436 C-31.26070313 436.21527344 -32.52140625 436.43054688 -33.8203125 436.65234375 C-66.50269117 441.5726579 -100.46251671 438.78518688 -132 429 C-132.79535156 428.75411133 -133.59070313 428.50822266 -134.41015625 428.25488281 C-175.91540018 415.14882916 -214.11049298 389.33799416 -241 355 C-241.80179688 354.00355469 -242.60359375 353.00710938 -243.4296875 351.98046875 C-265.74833781 323.98062805 -280.00052073 290.99739635 -287 256 C-287.17644043 255.1848291 -287.35288086 254.3696582 -287.53466797 253.52978516 C-292.87217405 228.36574507 -292.47206451 198.09381607 -287 173 C-286.70198486 171.54980469 -286.70198486 171.54980469 -286.39794922 170.0703125 C-275.83138807 119.28749878 -248.01324942 72.14855256 -207 40 C-206.02675781 39.20980469 -205.05351562 38.41960938 -204.05078125 37.60546875 C-195.2002161 30.55388924 -185.78548079 24.66654745 -176 19 C-175.35804688 18.62601074 -174.71609375 18.25202148 -174.0546875 17.86669922 C-122.20269569 -12.01714819 -56.82987417 -17.63269865 0 0 Z M-123 6 C-123.88445801 6.2587793 -124.76891602 6.51755859 -125.68017578 6.78417969 C-153.14251579 15.00754998 -178.84888244 27.69475132 -201 46 C-201.56138672 46.45987305 -202.12277344 46.91974609 -202.70117188 47.39355469 C-216.39233666 58.66548913 -228.41610526 70.76223626 -239 85 C-239.4237793 85.55768066 -239.84755859 86.11536133 -240.28417969 86.68994141 C-247.54161408 96.24844551 -253.47133086 106.35777572 -259 117 C-259.35835938 117.68400879 -259.71671875 118.36801758 -260.0859375 119.07275391 C-269.30358081 136.89728503 -275.39886128 156.29124082 -279 176 C-279.14808105 176.74056641 -279.29616211 177.48113281 -279.44873047 178.24414062 C-285.80593773 210.51603455 -283.15012926 245.84406299 -273 277 C-272.63914307 278.15145508 -272.63914307 278.15145508 -272.27099609 279.32617188 C-261.60009501 313.17111346 -243.31964904 341.45479384 -219 367 C-218.31550781 367.72574219 -217.63101563 368.45148438 -216.92578125 369.19921875 C-211.67717896 374.61816108 -205.96651673 379.39408808 -200 384 C-199.37367676 384.48629883 -198.74735352 384.97259766 -198.10205078 385.47363281 C-181.53061012 398.21722571 -163.4104048 408.26093774 -144 416 C-142.9275 416.43570312 -141.855 416.87140625 -140.75 417.3203125 C-97.31666733 433.9210334 -47.25335704 434.92561515 -3 421 C-2.20754883 420.75411133 -1.41509766 420.50822266 -0.59863281 420.25488281 C40.16037091 407.3895656 77.84091706 381.99330054 104 348 C104.42104004 347.46068848 104.84208008 346.92137695 105.27587891 346.36572266 C126.53789374 319.00223149 140.55887798 286.98440834 147 253 C147.24556641 251.76709229 147.24556641 251.76709229 147.49609375 250.50927734 C153.99010012 217.05306889 150.64019511 180.1968743 140 148 C139.7220459 147.15244141 139.4440918 146.30488281 139.15771484 145.43164062 C131.84225993 123.671157 121.07914282 103.13385424 107 85 C106.22011719 83.99066406 105.44023437 82.98132813 104.63671875 81.94140625 C99.09147865 74.99754431 93.09149997 68.46370787 87 62 C85.96552734 60.90171875 85.96552734 60.90171875 84.91015625 59.78125 C54.71330316 28.65811307 10.56060834 7.36596257 -32.125 1.375 C-32.94097656 1.25382813 -33.75695312 1.13265625 -34.59765625 1.0078125 C-63.77227089 -3.23241585 -94.58993637 -2.33072522 -123 6 Z " fill="#030200" transform="translate(291,10)"/>
</svg>
